<mxfile host="app.diagrams.net" agent="Mozilla/5.0 (Windows NT 10.0; Win64; x64) AppleWebKit/537.36 (KHTML, like Gecko) Chrome/109.0.0.0 Safari/537.36" version="26.0.11">
  <diagram name="apple SME" id="xHhK6yr-5agY-Y5EWzCa">
    <mxGraphModel dx="1434" dy="764" grid="1" gridSize="10" guides="1" tooltips="1" connect="1" arrows="1" fold="1" page="1" pageScale="1" pageWidth="827" pageHeight="1169" math="0" shadow="0">
      <root>
        <mxCell id="0" />
        <mxCell id="1" parent="0" />
        <mxCell id="55aNewZIKj-PdlUgYCJq-1" value="" style="rounded=0;whiteSpace=wrap;html=1;fillColor=#d5e8d4;strokeColor=#82b366;" vertex="1" parent="1">
          <mxGeometry x="214.5" y="317" width="101" height="56" as="geometry" />
        </mxCell>
        <mxCell id="55aNewZIKj-PdlUgYCJq-2" value="" style="rounded=0;whiteSpace=wrap;html=1;fillColor=#dae8fc;strokeColor=#6c8ebf;" vertex="1" parent="1">
          <mxGeometry x="338" y="317" width="101" height="137" as="geometry" />
        </mxCell>
        <mxCell id="55aNewZIKj-PdlUgYCJq-3" style="edgeStyle=orthogonalEdgeStyle;rounded=0;orthogonalLoop=1;jettySize=auto;html=1;exitX=1;exitY=0.5;exitDx=0;exitDy=0;entryX=0;entryY=0.5;entryDx=0;entryDy=0;startArrow=classic;startFill=1;" edge="1" parent="1" source="55aNewZIKj-PdlUgYCJq-4" target="55aNewZIKj-PdlUgYCJq-14">
          <mxGeometry relative="1" as="geometry" />
        </mxCell>
        <mxCell id="55aNewZIKj-PdlUgYCJq-4" value="" style="rounded=0;whiteSpace=wrap;html=1;fillColor=#dae8fc;strokeColor=#6c8ebf;" vertex="1" parent="1">
          <mxGeometry x="130" y="47" width="170" height="40" as="geometry" />
        </mxCell>
        <mxCell id="55aNewZIKj-PdlUgYCJq-5" style="edgeStyle=orthogonalEdgeStyle;rounded=0;orthogonalLoop=1;jettySize=auto;html=1;exitX=1;exitY=0.5;exitDx=0;exitDy=0;entryX=0;entryY=0.5;entryDx=0;entryDy=0;startArrow=classic;startFill=1;" edge="1" parent="1" source="55aNewZIKj-PdlUgYCJq-6" target="55aNewZIKj-PdlUgYCJq-15">
          <mxGeometry relative="1" as="geometry" />
        </mxCell>
        <mxCell id="55aNewZIKj-PdlUgYCJq-6" value="" style="rounded=0;whiteSpace=wrap;html=1;fillColor=#d5e8d4;strokeColor=#82b366;" vertex="1" parent="1">
          <mxGeometry x="130" y="127" width="170" height="40" as="geometry" />
        </mxCell>
        <mxCell id="55aNewZIKj-PdlUgYCJq-7" value="Core0" style="rounded=1;whiteSpace=wrap;html=1;" vertex="1" parent="1">
          <mxGeometry x="140" y="59.5" width="40" height="15" as="geometry" />
        </mxCell>
        <mxCell id="55aNewZIKj-PdlUgYCJq-8" value="Core3" style="rounded=1;whiteSpace=wrap;html=1;" vertex="1" parent="1">
          <mxGeometry x="250" y="59.5" width="40" height="15" as="geometry" />
        </mxCell>
        <mxCell id="55aNewZIKj-PdlUgYCJq-9" value="..." style="text;strokeColor=none;align=center;fillColor=none;html=1;verticalAlign=middle;whiteSpace=wrap;rounded=0;" vertex="1" parent="1">
          <mxGeometry x="185" y="52" width="60" height="30" as="geometry" />
        </mxCell>
        <mxCell id="55aNewZIKj-PdlUgYCJq-10" value="Core4" style="rounded=1;whiteSpace=wrap;html=1;" vertex="1" parent="1">
          <mxGeometry x="140" y="139.5" width="40" height="15" as="geometry" />
        </mxCell>
        <mxCell id="55aNewZIKj-PdlUgYCJq-11" value="Core9" style="rounded=1;whiteSpace=wrap;html=1;" vertex="1" parent="1">
          <mxGeometry x="250" y="139.5" width="40" height="15" as="geometry" />
        </mxCell>
        <mxCell id="55aNewZIKj-PdlUgYCJq-12" value="性能核心" style="text;strokeColor=none;align=center;fillColor=none;html=1;verticalAlign=middle;whiteSpace=wrap;rounded=0;" vertex="1" parent="1">
          <mxGeometry x="185" y="52" width="60" height="10" as="geometry" />
        </mxCell>
        <mxCell id="55aNewZIKj-PdlUgYCJq-13" value="效率核心" style="text;strokeColor=none;align=center;fillColor=none;html=1;verticalAlign=middle;whiteSpace=wrap;rounded=0;" vertex="1" parent="1">
          <mxGeometry x="185" y="129.5" width="60" height="10" as="geometry" />
        </mxCell>
        <mxCell id="55aNewZIKj-PdlUgYCJq-14" value="CME-0" style="rounded=1;whiteSpace=wrap;html=1;" vertex="1" parent="1">
          <mxGeometry x="384" y="50.5" width="70" height="33" as="geometry" />
        </mxCell>
        <mxCell id="55aNewZIKj-PdlUgYCJq-15" value="CME-1" style="rounded=1;whiteSpace=wrap;html=1;" vertex="1" parent="1">
          <mxGeometry x="384" y="130.5" width="70" height="33" as="geometry" />
        </mxCell>
        <mxCell id="55aNewZIKj-PdlUgYCJq-16" style="edgeStyle=orthogonalEdgeStyle;rounded=0;orthogonalLoop=1;jettySize=auto;html=1;exitX=1;exitY=0.5;exitDx=0;exitDy=0;entryX=0;entryY=0.5;entryDx=0;entryDy=0;" edge="1" parent="1" source="55aNewZIKj-PdlUgYCJq-18" target="55aNewZIKj-PdlUgYCJq-4">
          <mxGeometry relative="1" as="geometry" />
        </mxCell>
        <mxCell id="55aNewZIKj-PdlUgYCJq-17" style="edgeStyle=orthogonalEdgeStyle;rounded=0;orthogonalLoop=1;jettySize=auto;html=1;exitX=1;exitY=0.5;exitDx=0;exitDy=0;entryX=0;entryY=0.5;entryDx=0;entryDy=0;" edge="1" parent="1" source="55aNewZIKj-PdlUgYCJq-18" target="55aNewZIKj-PdlUgYCJq-6">
          <mxGeometry relative="1" as="geometry" />
        </mxCell>
        <mxCell id="55aNewZIKj-PdlUgYCJq-18" value="Apple M4" style="rounded=1;whiteSpace=wrap;html=1;fillColor=#ffe6cc;strokeColor=#d79b00;" vertex="1" parent="1">
          <mxGeometry y="92" width="60" height="35" as="geometry" />
        </mxCell>
        <mxCell id="55aNewZIKj-PdlUgYCJq-19" value="&lt;ul&gt;&lt;li&gt;M4有4个性能核心6个效率核心，每个Cluster对应一个CME单元&lt;/li&gt;&lt;li&gt;一个单独的线程足以充分利用效率核心对应的SME单元&lt;/li&gt;&lt;/ul&gt;" style="text;strokeColor=none;align=left;fillColor=none;html=1;verticalAlign=middle;whiteSpace=wrap;rounded=0;" vertex="1" parent="1">
          <mxGeometry x="36" y="197" width="450" height="90" as="geometry" />
        </mxCell>
        <mxCell id="55aNewZIKj-PdlUgYCJq-20" style="edgeStyle=orthogonalEdgeStyle;rounded=0;orthogonalLoop=1;jettySize=auto;html=1;exitX=1;exitY=0.5;exitDx=0;exitDy=0;entryX=0;entryY=0.5;entryDx=0;entryDy=0;" edge="1" parent="1" source="55aNewZIKj-PdlUgYCJq-21" target="55aNewZIKj-PdlUgYCJq-22">
          <mxGeometry relative="1" as="geometry" />
        </mxCell>
        <mxCell id="55aNewZIKj-PdlUgYCJq-21" value="Z Register" style="rounded=1;whiteSpace=wrap;html=1;" vertex="1" parent="1">
          <mxGeometry x="230" y="328" width="70" height="33" as="geometry" />
        </mxCell>
        <mxCell id="55aNewZIKj-PdlUgYCJq-22" value="ZA" style="rounded=1;whiteSpace=wrap;html=1;" vertex="1" parent="1">
          <mxGeometry x="352" y="328" width="70" height="33" as="geometry" />
        </mxCell>
        <mxCell id="55aNewZIKj-PdlUgYCJq-23" style="edgeStyle=orthogonalEdgeStyle;rounded=0;orthogonalLoop=1;jettySize=auto;html=1;exitX=1;exitY=0.5;exitDx=0;exitDy=0;entryX=0;entryY=0.5;entryDx=0;entryDy=0;curved=1;" edge="1" parent="1" source="55aNewZIKj-PdlUgYCJq-26" target="55aNewZIKj-PdlUgYCJq-21">
          <mxGeometry relative="1" as="geometry" />
        </mxCell>
        <mxCell id="55aNewZIKj-PdlUgYCJq-24" style="edgeStyle=orthogonalEdgeStyle;rounded=0;orthogonalLoop=1;jettySize=auto;html=1;exitX=1;exitY=0.5;exitDx=0;exitDy=0;entryX=0;entryY=0.5;entryDx=0;entryDy=0;curved=1;" edge="1" parent="1" source="55aNewZIKj-PdlUgYCJq-26" target="55aNewZIKj-PdlUgYCJq-27">
          <mxGeometry relative="1" as="geometry">
            <Array as="points">
              <mxPoint x="138" y="390" />
              <mxPoint x="138" y="424" />
              <mxPoint x="192" y="424" />
            </Array>
          </mxGeometry>
        </mxCell>
        <mxCell id="55aNewZIKj-PdlUgYCJq-25" value="LDR(array vector)/&lt;div&gt;STR(array vector)&lt;/div&gt;" style="edgeLabel;html=1;align=center;verticalAlign=middle;resizable=0;points=[];" vertex="1" connectable="0" parent="55aNewZIKj-PdlUgYCJq-24">
          <mxGeometry x="-0.2559" y="-5" relative="1" as="geometry">
            <mxPoint x="29" y="-4" as="offset" />
          </mxGeometry>
        </mxCell>
        <mxCell id="55aNewZIKj-PdlUgYCJq-26" value="DDR" style="rounded=1;whiteSpace=wrap;html=1;" vertex="1" parent="1">
          <mxGeometry x="10" y="373" width="70" height="33" as="geometry" />
        </mxCell>
        <mxCell id="55aNewZIKj-PdlUgYCJq-27" value="ZA" style="rounded=1;whiteSpace=wrap;html=1;" vertex="1" parent="1">
          <mxGeometry x="355" y="408" width="70" height="33" as="geometry" />
        </mxCell>
        <mxCell id="55aNewZIKj-PdlUgYCJq-28" value="SME" style="text;strokeColor=none;align=center;fillColor=none;html=1;verticalAlign=middle;whiteSpace=wrap;rounded=0;" vertex="1" parent="1">
          <mxGeometry x="355" y="290" width="60" height="30" as="geometry" />
        </mxCell>
        <mxCell id="55aNewZIKj-PdlUgYCJq-29" value="SVE" style="text;strokeColor=none;align=center;fillColor=none;html=1;verticalAlign=middle;whiteSpace=wrap;rounded=0;" vertex="1" parent="1">
          <mxGeometry x="230" y="290" width="60" height="30" as="geometry" />
        </mxCell>
        <mxCell id="55aNewZIKj-PdlUgYCJq-30" value="LD1W/ST1W" style="edgeLabel;html=1;align=center;verticalAlign=middle;resizable=0;points=[];" vertex="1" connectable="0" parent="1">
          <mxGeometry x="159.99813319831787" y="360.9961286899479" as="geometry" />
        </mxCell>
        <mxCell id="55aNewZIKj-PdlUgYCJq-31" value="" style="group" vertex="1" connectable="0" parent="1">
          <mxGeometry x="20" y="522" width="53" height="113" as="geometry" />
        </mxCell>
        <mxCell id="55aNewZIKj-PdlUgYCJq-32" value="" style="rounded=0;whiteSpace=wrap;html=1;fillColor=#dae8fc;strokeColor=#6c8ebf;" vertex="1" parent="55aNewZIKj-PdlUgYCJq-31">
          <mxGeometry y="23" width="53" height="18" as="geometry" />
        </mxCell>
        <mxCell id="55aNewZIKj-PdlUgYCJq-33" value="" style="rounded=0;whiteSpace=wrap;html=1;fillColor=#dae8fc;strokeColor=#6c8ebf;" vertex="1" parent="55aNewZIKj-PdlUgYCJq-31">
          <mxGeometry y="46" width="53" height="18" as="geometry" />
        </mxCell>
        <mxCell id="55aNewZIKj-PdlUgYCJq-34" value="" style="rounded=0;whiteSpace=wrap;html=1;fillColor=#dae8fc;strokeColor=#6c8ebf;" vertex="1" parent="55aNewZIKj-PdlUgYCJq-31">
          <mxGeometry y="95" width="53" height="18" as="geometry" />
        </mxCell>
        <mxCell id="55aNewZIKj-PdlUgYCJq-35" value="..." style="text;strokeColor=none;align=center;fillColor=none;html=1;verticalAlign=middle;whiteSpace=wrap;rounded=0;" vertex="1" parent="55aNewZIKj-PdlUgYCJq-31">
          <mxGeometry y="64" width="53" height="30" as="geometry" />
        </mxCell>
        <mxCell id="55aNewZIKj-PdlUgYCJq-36" value="" style="rounded=0;whiteSpace=wrap;html=1;fillColor=#dae8fc;strokeColor=#6c8ebf;" vertex="1" parent="55aNewZIKj-PdlUgYCJq-31">
          <mxGeometry width="53" height="18" as="geometry" />
        </mxCell>
        <mxCell id="55aNewZIKj-PdlUgYCJq-37" value="" style="group" vertex="1" connectable="0" parent="1">
          <mxGeometry x="117" y="522" width="53" height="113" as="geometry" />
        </mxCell>
        <mxCell id="55aNewZIKj-PdlUgYCJq-38" value="" style="rounded=0;whiteSpace=wrap;html=1;fillColor=#647687;strokeColor=#314354;fontColor=#ffffff;" vertex="1" parent="55aNewZIKj-PdlUgYCJq-37">
          <mxGeometry y="23" width="53" height="18" as="geometry" />
        </mxCell>
        <mxCell id="55aNewZIKj-PdlUgYCJq-39" value="" style="rounded=0;whiteSpace=wrap;html=1;fillColor=#ffe6cc;strokeColor=#d79b00;" vertex="1" parent="55aNewZIKj-PdlUgYCJq-37">
          <mxGeometry y="46" width="53" height="18" as="geometry" />
        </mxCell>
        <mxCell id="55aNewZIKj-PdlUgYCJq-40" value="" style="rounded=0;whiteSpace=wrap;html=1;fillColor=#ffe6cc;strokeColor=#d79b00;" vertex="1" parent="55aNewZIKj-PdlUgYCJq-37">
          <mxGeometry y="95" width="53" height="18" as="geometry" />
        </mxCell>
        <mxCell id="55aNewZIKj-PdlUgYCJq-41" value="..." style="text;strokeColor=none;align=center;fillColor=none;html=1;verticalAlign=middle;whiteSpace=wrap;rounded=0;" vertex="1" parent="55aNewZIKj-PdlUgYCJq-37">
          <mxGeometry y="64" width="53" height="30" as="geometry" />
        </mxCell>
        <mxCell id="55aNewZIKj-PdlUgYCJq-42" value="" style="rounded=0;whiteSpace=wrap;html=1;fillColor=#ffe6cc;strokeColor=#d79b00;" vertex="1" parent="55aNewZIKj-PdlUgYCJq-37">
          <mxGeometry width="53" height="18" as="geometry" />
        </mxCell>
        <mxCell id="55aNewZIKj-PdlUgYCJq-43" value="" style="group" vertex="1" connectable="0" parent="1">
          <mxGeometry x="210" y="522" width="53" height="113" as="geometry" />
        </mxCell>
        <mxCell id="55aNewZIKj-PdlUgYCJq-44" value="" style="rounded=0;whiteSpace=wrap;html=1;fillColor=#647687;strokeColor=#314354;fontColor=#ffffff;" vertex="1" parent="55aNewZIKj-PdlUgYCJq-43">
          <mxGeometry y="23" width="53" height="18" as="geometry" />
        </mxCell>
        <mxCell id="55aNewZIKj-PdlUgYCJq-45" value="" style="rounded=0;whiteSpace=wrap;html=1;fillColor=#f8cecc;strokeColor=#b85450;" vertex="1" parent="55aNewZIKj-PdlUgYCJq-43">
          <mxGeometry y="46" width="53" height="18" as="geometry" />
        </mxCell>
        <mxCell id="55aNewZIKj-PdlUgYCJq-46" value="" style="rounded=0;whiteSpace=wrap;html=1;fillColor=#f8cecc;strokeColor=#b85450;" vertex="1" parent="55aNewZIKj-PdlUgYCJq-43">
          <mxGeometry y="95" width="53" height="18" as="geometry" />
        </mxCell>
        <mxCell id="55aNewZIKj-PdlUgYCJq-47" value="..." style="text;strokeColor=none;align=center;fillColor=none;html=1;verticalAlign=middle;whiteSpace=wrap;rounded=0;" vertex="1" parent="55aNewZIKj-PdlUgYCJq-43">
          <mxGeometry y="64" width="53" height="30" as="geometry" />
        </mxCell>
        <mxCell id="55aNewZIKj-PdlUgYCJq-48" value="" style="rounded=0;whiteSpace=wrap;html=1;fillColor=#f8cecc;strokeColor=#b85450;" vertex="1" parent="55aNewZIKj-PdlUgYCJq-43">
          <mxGeometry width="53" height="18" as="geometry" />
        </mxCell>
        <mxCell id="55aNewZIKj-PdlUgYCJq-49" value="" style="group" vertex="1" connectable="0" parent="1">
          <mxGeometry x="159" y="520" width="60" height="125.5" as="geometry" />
        </mxCell>
        <mxCell id="55aNewZIKj-PdlUgYCJq-50" value="*" style="text;strokeColor=none;align=center;fillColor=none;html=1;verticalAlign=middle;whiteSpace=wrap;rounded=0;fontSize=20;" vertex="1" parent="55aNewZIKj-PdlUgYCJq-49">
          <mxGeometry width="60" height="30" as="geometry" />
        </mxCell>
        <mxCell id="55aNewZIKj-PdlUgYCJq-51" value="*" style="text;strokeColor=none;align=center;fillColor=none;html=1;verticalAlign=middle;whiteSpace=wrap;rounded=0;fontSize=20;" vertex="1" parent="55aNewZIKj-PdlUgYCJq-49">
          <mxGeometry y="45.5" width="60" height="30" as="geometry" />
        </mxCell>
        <mxCell id="55aNewZIKj-PdlUgYCJq-52" value="*" style="text;strokeColor=none;align=center;fillColor=none;html=1;verticalAlign=middle;whiteSpace=wrap;rounded=0;fontSize=20;" vertex="1" parent="55aNewZIKj-PdlUgYCJq-49">
          <mxGeometry y="95.5" width="60" height="30" as="geometry" />
        </mxCell>
        <mxCell id="55aNewZIKj-PdlUgYCJq-53" value="..." style="text;strokeColor=none;align=center;fillColor=none;html=1;verticalAlign=middle;whiteSpace=wrap;rounded=0;" vertex="1" parent="55aNewZIKj-PdlUgYCJq-49">
          <mxGeometry x="3.5" y="62.5" width="53" height="30" as="geometry" />
        </mxCell>
        <mxCell id="55aNewZIKj-PdlUgYCJq-54" value="" style="group;fontSize=11;" vertex="1" connectable="0" parent="1">
          <mxGeometry x="67" y="515" width="60" height="125.5" as="geometry" />
        </mxCell>
        <mxCell id="55aNewZIKj-PdlUgYCJq-55" value="+=" style="text;strokeColor=none;align=center;fillColor=none;html=1;verticalAlign=middle;whiteSpace=wrap;rounded=0;fontSize=20;" vertex="1" parent="55aNewZIKj-PdlUgYCJq-54">
          <mxGeometry width="60" height="30" as="geometry" />
        </mxCell>
        <mxCell id="55aNewZIKj-PdlUgYCJq-56" value="+=" style="text;strokeColor=none;align=center;fillColor=none;html=1;verticalAlign=middle;whiteSpace=wrap;rounded=0;fontSize=20;" vertex="1" parent="55aNewZIKj-PdlUgYCJq-54">
          <mxGeometry y="45.5" width="60" height="30" as="geometry" />
        </mxCell>
        <mxCell id="55aNewZIKj-PdlUgYCJq-57" value="+=" style="text;strokeColor=none;align=center;fillColor=none;html=1;verticalAlign=middle;whiteSpace=wrap;rounded=0;fontSize=20;" vertex="1" parent="55aNewZIKj-PdlUgYCJq-54">
          <mxGeometry y="95.5" width="60" height="30" as="geometry" />
        </mxCell>
        <mxCell id="55aNewZIKj-PdlUgYCJq-58" value="..." style="text;strokeColor=none;align=center;fillColor=none;html=1;verticalAlign=middle;whiteSpace=wrap;rounded=0;" vertex="1" parent="55aNewZIKj-PdlUgYCJq-54">
          <mxGeometry x="3.5" y="62.5" width="53" height="30" as="geometry" />
        </mxCell>
        <mxCell id="55aNewZIKj-PdlUgYCJq-59" value="" style="group" vertex="1" connectable="0" parent="1">
          <mxGeometry x="301" y="522" width="53" height="113" as="geometry" />
        </mxCell>
        <mxCell id="55aNewZIKj-PdlUgYCJq-60" value="" style="rounded=0;whiteSpace=wrap;html=1;fillColor=#647687;strokeColor=#314354;fontColor=#ffffff;" vertex="1" parent="55aNewZIKj-PdlUgYCJq-59">
          <mxGeometry y="23" width="53" height="18" as="geometry" />
        </mxCell>
        <mxCell id="55aNewZIKj-PdlUgYCJq-61" value="" style="rounded=0;whiteSpace=wrap;html=1;fillColor=#e51400;strokeColor=#B20000;fontColor=#ffffff;" vertex="1" parent="55aNewZIKj-PdlUgYCJq-59">
          <mxGeometry y="46" width="53" height="18" as="geometry" />
        </mxCell>
        <mxCell id="55aNewZIKj-PdlUgYCJq-62" value="" style="rounded=0;whiteSpace=wrap;html=1;fillColor=#e51400;strokeColor=#B20000;fontColor=#ffffff;" vertex="1" parent="55aNewZIKj-PdlUgYCJq-59">
          <mxGeometry y="95" width="53" height="18" as="geometry" />
        </mxCell>
        <mxCell id="55aNewZIKj-PdlUgYCJq-63" value="..." style="text;strokeColor=none;align=center;fillColor=none;html=1;verticalAlign=middle;whiteSpace=wrap;rounded=0;" vertex="1" parent="55aNewZIKj-PdlUgYCJq-59">
          <mxGeometry y="64" width="53" height="30" as="geometry" />
        </mxCell>
        <mxCell id="55aNewZIKj-PdlUgYCJq-64" value="" style="rounded=0;whiteSpace=wrap;html=1;fillColor=#e51400;strokeColor=#B20000;fontColor=#ffffff;" vertex="1" parent="55aNewZIKj-PdlUgYCJq-59">
          <mxGeometry width="53" height="18" as="geometry" />
        </mxCell>
        <mxCell id="55aNewZIKj-PdlUgYCJq-65" style="edgeStyle=orthogonalEdgeStyle;rounded=0;orthogonalLoop=1;jettySize=auto;html=1;exitX=0;exitY=0.5;exitDx=0;exitDy=0;entryX=1;entryY=0.5;entryDx=0;entryDy=0;" edge="1" parent="1" source="55aNewZIKj-PdlUgYCJq-60" target="55aNewZIKj-PdlUgYCJq-44">
          <mxGeometry relative="1" as="geometry" />
        </mxCell>
        <mxCell id="55aNewZIKj-PdlUgYCJq-66" value="z0" style="text;strokeColor=none;align=center;fillColor=none;html=1;verticalAlign=middle;whiteSpace=wrap;rounded=0;" vertex="1" parent="1">
          <mxGeometry x="20" y="490" width="60" height="30" as="geometry" />
        </mxCell>
        <mxCell id="55aNewZIKj-PdlUgYCJq-67" value="z30" style="text;strokeColor=none;align=center;fillColor=none;html=1;verticalAlign=middle;whiteSpace=wrap;rounded=0;" vertex="1" parent="1">
          <mxGeometry x="117" y="490" width="60" height="30" as="geometry" />
        </mxCell>
        <mxCell id="55aNewZIKj-PdlUgYCJq-68" value="z31" style="text;strokeColor=none;align=center;fillColor=none;html=1;verticalAlign=middle;whiteSpace=wrap;rounded=0;" vertex="1" parent="1">
          <mxGeometry x="210" y="492" width="60" height="30" as="geometry" />
        </mxCell>
        <mxCell id="55aNewZIKj-PdlUgYCJq-69" value="p0" style="text;strokeColor=none;align=center;fillColor=none;html=1;verticalAlign=middle;whiteSpace=wrap;rounded=0;" vertex="1" parent="1">
          <mxGeometry x="301" y="492" width="60" height="30" as="geometry" />
        </mxCell>
      </root>
    </mxGraphModel>
  </diagram>
</mxfile>
